<?xml version="1.0" encoding="utf-8"?>
<!-- Generator: Adobe Illustrator 19.0.0, SVG Export Plug-In . SVG Version: 6.00 Build 0)  -->
<svg version="1.1" id="Layer_1" xmlns="http://www.w3.org/2000/svg" xmlns:xlink="http://www.w3.org/1999/xlink" x="0px" y="0px"
	 viewBox="-1063 1065 32 32" style="enable-background:new -1063 1065 32 32;" xml:space="preserve">
<style type="text/css">
	.st0{fill:#5596E6;}
	.st1{fill:#FFFFFF;}
</style>
<path class="st0" d="M-1063,1081.2c0-8.6,7.1-15.6,15.9-15.6c8.8,0,15.9,7,15.9,15.6c0,8.6-7.1,15.6-15.9,15.6
	C-1055.9,1096.8-1063,1089.8-1063,1081.2"/>
<path class="st1" d="M-1056.1,1079.2c0-3.8,3.1-6.9,7-6.9c2.1,0,4,0.9,5.3,2.4h-2.5c-0.1,0-0.3,0.1-0.3,0.2v1.5
	c0,0.1,0.1,0.2,0.3,0.2h3.8c0.2,0.6,0.4,1.1,0.4,1.8h-6c-0.1,0-0.3,0.1-0.3,0.2v1.5c0,0.1,0.1,0.2,0.3,0.2h5.9
	c-0.1,0.6-0.3,1.2-0.6,1.7h-3.6c-0.1,0-0.2,0.1-0.2,0.2v1.5c0,0.1,0.1,0.2,0.2,0.2h2.1c-1.3,1.2-2.9,1.9-4.8,1.9
	C-1052.9,1086.1-1056.1,1083-1056.1,1079.2 M-1042.8,1076.2h-3.3v-1h2.7C-1043.2,1075.5-1043,1075.9-1042.8,1076.2 M-1042.1,1079.2
	c0,0.3,0,0.5,0,0.8h-5.7v-1h5.8C-1042.1,1079.1-1042.1,1079.1-1042.1,1079.2 M-1043.8,1083.7h-2.3v-1h3
	C-1043.3,1083.1-1043.5,1083.4-1043.8,1083.7 M-1037.7,1090.1l-5.9-5.8c0,0,0,0,0.1-0.1c0,0,0.1-0.1,0.1-0.1c0.4-0.5,0.8-0.9,1-1.5
	c0,0,0-0.1,0-0.1c0.2-0.3,0.3-0.6,0.4-0.9h4.1c0.1,0,0.2-0.1,0.2-0.2c0-0.1-0.1-0.2-0.2-0.2h-4c0.1-0.5,0.2-0.9,0.2-1.4h3.7
	c0.1,0,0.2-0.1,0.2-0.2c0-0.1-0.1-0.2-0.2-0.2h-3.7v0c0-0.2,0-0.3,0-0.5c0,0,0,0,0,0c0,0,0,0,0-0.1c0-0.3-0.1-0.6-0.1-0.8h3.8
	c0.1,0,0.2-0.1,0.2-0.2s-0.1-0.2-0.2-0.2h-4c-0.1-0.3-0.2-0.6-0.3-0.9l0,0c-0.1-0.1-0.1-0.3-0.2-0.4h4.5c0.1,0,0.2-0.1,0.2-0.2
	c0-0.1-0.1-0.2-0.2-0.2h-4.8c-0.1-0.2-0.2-0.4-0.4-0.6c0,0,0-0.1-0.1-0.1c-1.4-1.8-3.5-2.9-6-2.9c-4.1,0-7.5,3.3-7.5,7.4
	s3.4,7.4,7.5,7.4c2,0,3.8-0.8,5.1-2l5.9,5.8c0,0,0.1,0.1,0.2,0.1c0.1,0,0.1,0,0.2-0.1C-1037.6,1090.3-1037.6,1090.2-1037.7,1090.1"
	/>
<path class="st1" d="M-1053,1080h2.7v-1h-2.7V1080z M-1049.7,1080.2v-1.5c0-0.1-0.1-0.2-0.3-0.2h-3.3c-0.1,0-0.2,0.1-0.2,0.2v1.5
	c0,0.1,0.1,0.2,0.2,0.2h3.3C-1049.8,1080.5-1049.7,1080.4-1049.7,1080.2L-1049.7,1080.2z M-1051.6,1083.7h3.2v-1h-3.2V1083.7z
	 M-1048.1,1082.2h-3.7c-0.1,0-0.3,0.1-0.3,0.2v1.5c0,0.1,0.1,0.2,0.3,0.2h3.7c0.1,0,0.3-0.1,0.3-0.2v-1.5
	C-1047.9,1082.3-1048,1082.2-1048.1,1082.2L-1048.1,1082.2z M-1051.6,1076.2h3.2v-1h-3.2V1076.2L-1051.6,1076.2z M-1051.8,1076.7
	h3.7c0.1,0,0.3-0.1,0.3-0.2v-1.5c0-0.1-0.1-0.2-0.3-0.2h-3.7c-0.1,0-0.3,0.1-0.3,0.2v1.5
	C-1052.1,1076.6-1051.9,1076.7-1051.8,1076.7L-1051.8,1076.7z"/>
</svg>
